P1
227 58
00000000000000000000000000000000000000000000000000000000000000000000000000000000000000000000000000000000000000000000000000000000000000000000000000000000000000000000000000000000000000000000000000000000000000000000000000000000000
00000000000000000000000000000000000000000000000000000000000000000000000000000000000000000000000000000000000000000000000000000000000000000000000000000000000000000000000000000000000000000000000000000000000000000000000000000000000
00000000000000000000000000000000000000000000000000000000000000000000000000000000000000000000000000000000000000000000000000000000000000000000000000000000000000000000000000000000000000000000000000000000000000000000000000000000000
00000000000000000000000000000000000000000000000000000000000000000000000000000000000000000000000000000000000000000000000000000000000000000000000000000000000000000000000000000000000000000000000000000000000000000000000000000000000
00001110001110000000000000000000001111110000001110000000001110000001111110000001111111111110001110000001110000000001111110000001110001110000000000001111110000001111110000001111110001111110000000001110000000000001110000001110000
00001110001110000000000000000000001111110000001110000000001110000001111110000001111111111110001110000001110000000001111110000001110001110000000000001111110000001111110000001111110001111110000000001110000000000001110000001110000
00001110001110000000000000000000001111110000001110000000001110000001111110000001111111111110001110000001110000000001111110000001110001110000000000001111110000001111110000001111110001111110000000001110000000000001110000001110000
00001110001110000000000000000000001111110000001110000000001110000001111110000001111111111110001110000001110000000001111110000001110001110000000000001111110000001111110000001111110001111110000000001110000000000001110000001110000
00001110001110000000000000000000001111110000001110000000001110000001111110000001111111111110001110000001110000000001111110000001110001110000000000001111110000001111110000001111110001111110000000001110000000000001110000001110000
00001110001110000000000000000000001111110000001110000000001110000001111110000001111111111110001110000001110000000001111110000001110001110000000000001111110000001111110000001111110001111110000000001110000000000001110000001110000
00001110001110000000000000000000001111110000001110000000001110000001111110000001111111111110001110000001110000000001111110000001110001110000000000001111110000001111110000001111110001111110000000001110000000000001110000001110000
00001110001110000000000000000000001111110000001110000000001110000001111110000001111111111110001110000001110000000001111110000001110001110000000000001111110000001111110000001111110001111110000000001110000000000001110000001110000
00001110001110000000000000000000001111110000001110000000001110000001111110000001111111111110001110000001110000000001111110000001110001110000000000001111110000001111110000001111110001111110000000001110000000000001110000001110000
00001110001110000000000000000000001111110000001110000000001110000001111110000001111111111110001110000001110000000001111110000001110001110000000000001111110000001111110000001111110001111110000000001110000000000001110000001110000
00001110001110000000000000000000001111110000001110000000001110000001111110000001111111111110001110000001110000000001111110000001110001110000000000001111110000001111110000001111110001111110000000001110000000000001110000001110000
00001110001110000000000000000000001111110000001110000000001110000001111110000001111111111110001110000001110000000001111110000001110001110000000000001111110000001111110000001111110001111110000000001110000000000001110000001110000
00001110001110000000000000000000001111110000001110000000001110000001111110000001111111111110001110000001110000000001111110000001110001110000000000001111110000001111110000001111110001111110000000001110000000000001110000001110000
00001110001110000000000000000000001111110000001110000000001110000001111110000001111111111110001110000001110000000001111110000001110001110000000000001111110000001111110000001111110001111110000000001110000000000001110000001110000
00001110001110000000000000000000001111110000001110000000001110000001111110000001111111111110001110000001110000000001111110000001110001110000000000001111110000001111110000001111110001111110000000001110000000000001110000001110000
00001110001110000000000000000000001111110000001110000000001110000001111110000001111111111110001110000001110000000001111110000001110001110000000000001111110000001111110000001111110001111110000000001110000000000001110000001110000
00001110001110000000000000000000001111110000001110000000001110000001111110000001111111111110001110000001110000000001111110000001110001110000000000001111110000001111110000001111110001111110000000001110000000000001110000001110000
00001110001110000000000000000000001111110000001110000000001110000001111110000001111111111110001110000001110000000001111110000001110001110000000000001111110000001111110000001111110001111110000000001110000000000001110000001110000
00001110001110000000000000000000001111110000001110000000001110000001111110000001111111111110001110000001110000000001111110000001110001110000000000001111110000001111110000001111110001111110000000001110000000000001110000001110000
00001110001110000000000000000000001111110000001110000000001110000001111110000001111111111110001110000001110000000001111110000001110001110000000000001111110000001111110000001111110001111110000000001110000000000001110000001110000
00001110001110000000000000000000001111110000001110000000001110000001111110000001111111111110001110000001110000000001111110000001110001110000000000001111110000001111110000001111110001111110000000001110000000000001110000001110000
00001110001110000000000000000000001111110000001110000000001110000001111110000001111111111110001110000001110000000001111110000001110001110000000000001111110000001111110000001111110001111110000000001110000000000001110000001110000
00001110001110000000000000000000001111110000001110000000001110000001111110000001111111111110001110000001110000000001111110000001110001110000000000001111110000001111110000001111110001111110000000001110000000000001110000001110000
00001110001110000000000000000000001111110000001110000000001110000001111110000001111111111110001110000001110000000001111110000001110001110000000000001111110000001111110000001111110001111110000000001110000000000001110000001110000
00001110001110000000000000000000001111110000001110000000001110000001111110000001111111111110001110000001110000000001111110000001110001110000000000001111110000001111110000001111110001111110000000001110000000000001110000001110000
00001110001110000000000000000000001111110000001110000000001110000001111110000001111111111110001110000001110000000001111110000001110001110000000000001111110000001111110000001111110001111110000000001110000000000001110000001110000
00001110001110000000000000000000001111110000001110000000001110000001111110000001111111111110001110000001110000000001111110000001110001110000000000001111110000001111110000001111110001111110000000001110000000000001110000001110000
00001110001110000000000000000000001111110000001110000000001110000001111110000001111111111110001110000001110000000001111110000001110001110000000000001111110000001111110000001111110001111110000000001110000000000001110000001110000
00001110001110000000000000000000001111110000001110000000001110000001111110000001111111111110001110000001110000000001111110000001110001110000000000001111110000001111110000001111110001111110000000001110000000000001110000001110000
00001110001110000000000000000000001111110000001110000000001110000001111110000001111111111110001110000001110000000001111110000001110001110000000000001111110000001111110000001111110001111110000000001110000000000001110000001110000
00001110001110000000000000000000001111110000001110000000001110000001111110000001111111111110001110000001110000000001111110000001110001110000000000001111110000001111110000001111110001111110000000001110000000000001110000001110000
00001110001110000000000000000000001111110000001110000000001110000001111110000001111111111110001110000001110000000001111110000001110001110000000000001111110000001111110000001111110001111110000000001110000000000001110000001110000
00001110001110000000000000000000001111110000001110000000001110000001111110000001111111111110001110000001110000000001111110000001110001110000000000001111110000001111110000001111110001111110000000001110000000000001110000001110000
00001110001110000000000000000000001111110000001110000000001110000001111110000001111111111110001110000001110000000001111110000001110001110000000000001111110000001111110000001111110001111110000000001110000000000001110000001110000
00001110001110000000000000000000001111110000001110000000001110000001111110000001111111111110001110000001110000000001111110000001110001110000000000001111110000001111110000001111110001111110000000001110000000000001110000001110000
00001110001110000000000000000000001111110000001110000000001110000001111110000001111111111110001110000001110000000001111110000001110001110000000000001111110000001111110000001111110001111110000000001110000000000001110000001110000
00001110001110000000000000000000001111110000001110000000001110000001111110000001111111111110001110000001110000000001111110000001110001110000000000001111110000001111110000001111110001111110000000001110000000000001110000001110000
00001110001110000000000000000000001111110000001110000000001110000001111110000001111111111110001110000001110000000001111110000001110001110000000000001111110000001111110000001111110001111110000000001110000000000001110000001110000
00001110001110000000000000000000001111110000001110000000001110000001111110000001111111111110001110000001110000000001111110000001110001110000000000001111110000001111110000001111110001111110000000001110000000000001110000001110000
00001110001110000000000000000000001111110000001110000000001110000001111110000001111111111110001110000001110000000001111110000001110001110000000000001111110000001111110000001111110001111110000000001110000000000001110000001110000
00001110001110000000000000000000001111110000001110000000001110000001111110000001111111111110001110000001110000000001111110000001110001110000000000001111110000001111110000001111110001111110000000001110000000000001110000001110000
00001110001110000000000000000000001111110000001110000000001110000001111110000001111111111110001110000001110000000001111110000001110001110000000000001111110000001111110000001111110001111110000000001110000000000001110000001110000
00001110001110000000000000000000001111110000001110000000001110000001111110000001111111111110001110000001110000000001111110000001110001110000000000001111110000001111110000001111110001111110000000001110000000000001110000001110000
00001110001110000000000000000000001111110000001110000000001110000001111110000001111111111110001110000001110000000001111110000001110001110000000000001111110000001111110000001111110001111110000000001110000000000001110000001110000
00001110001110000000000000000000001111110000001110000000001110000001111110000001111111111110001110000001110000000001111110000001110001110000000000001111110000001111110000001111110001111110000000001110000000000001110000001110000
00001110001110000000000000000000001111110000001110000000001110000001111110000001111111111110001110000001110000000001111110000001110001110000000000001111110000001111110000001111110001111110000000001110000000000001110000001110000
00001110001110000000000000000000001111110000001110000000001110000001111110000001111111111110001110000001110000000001111110000001110001110000000000001111110000001111110000001111110001111110000000001110000000000001110000001110000
00001110001110000000000000000000001111110000001110000000001110000001111110000001111111111110001110000001110000000001111110000001110001110000000000001111110000001111110000001111110001111110000000001110000000000001110000001110000
00001110001110000000000000000000001111110000001110000000001110000001111110000001111111111110001110000001110000000001111110000001110001110000000000001111110000001111110000001111110001111110000000001110000000000001110000001110000
00001110001110000000000000000000001111110000001110000000001110000001111110000001111111111110001110000001110000000001111110000001110001110000000000001111110000001111110000001111110001111110000000001110000000000001110000001110000
00000000000000000000000000000000000000000000000000000000000000000000000000000000000000000000000000000000000000000000000000000000000000000000000000000000000000000000000000000000000000000000000000000000000000000000000000000000000
00000000000000000000000000000000000000000000000000000000000000000000000000000000000000000000000000000000000000000000000000000000000000000000000000000000000000000000000000000000000000000000000000000000000000000000000000000000000
00000000000000000000000000000000000000000000000000000000000000000000000000000000000000000000000000000000000000000000000000000000000000000000000000000000000000000000000000000000000000000000000000000000000000000000000000000000000
00000000000000000000000000000000000000000000000000000000000000000000000000000000000000000000000000000000000000000000000000000000000000000000000000000000000000000000000000000000000000000000000000000000000000000000000000000000000
