P1
209 58
00000000000000000000000000000000000000000000000000000000000000000000000000000000000000000000000000000000000000000000000000000000000000000000000000000000000000000000000000000000000000000000000000000000000000000
00000000000000000000000000000000000000000000000000000000000000000000000000000000000000000000000000000000000000000000000000000000000000000000000000000000000000000000000000000000000000000000000000000000000000000
00000000000000000000000000000000000000000000000000000000000000000000000000000000000000000000000000000000000000000000000000000000000000000000000000000000000000000000000000000000000000000000000000000000000000000
00000000000000000000000000000000000000000000000000000000000000000000000000000000000000000000000000000000000000000000000000000000000000000000000000000000000000000000000000000000000000000000000000000000000000000
00001110001110000000000000001110000000001111110000000001111110001110000001111110000001110001110001110000000001110001111111110000001111111110000001110001111110000001111110001110001110000000000001111111110000000
00001110001110000000000000001110000000001111110000000001111110001110000001111110000001110001110001110000000001110001111111110000001111111110000001110001111110000001111110001110001110000000000001111111110000000
00001110001110000000000000001110000000001111110000000001111110001110000001111110000001110001110001110000000001110001111111110000001111111110000001110001111110000001111110001110001110000000000001111111110000000
00001110001110000000000000001110000000001111110000000001111110001110000001111110000001110001110001110000000001110001111111110000001111111110000001110001111110000001111110001110001110000000000001111111110000000
00001110001110000000000000001110000000001111110000000001111110001110000001111110000001110001110001110000000001110001111111110000001111111110000001110001111110000001111110001110001110000000000001111111110000000
00001110001110000000000000001110000000001111110000000001111110001110000001111110000001110001110001110000000001110001111111110000001111111110000001110001111110000001111110001110001110000000000001111111110000000
00001110001110000000000000001110000000001111110000000001111110001110000001111110000001110001110001110000000001110001111111110000001111111110000001110001111110000001111110001110001110000000000001111111110000000
00001110001110000000000000001110000000001111110000000001111110001110000001111110000001110001110001110000000001110001111111110000001111111110000001110001111110000001111110001110001110000000000001111111110000000
00001110001110000000000000001110000000001111110000000001111110001110000001111110000001110001110001110000000001110001111111110000001111111110000001110001111110000001111110001110001110000000000001111111110000000
00001110001110000000000000001110000000001111110000000001111110001110000001111110000001110001110001110000000001110001111111110000001111111110000001110001111110000001111110001110001110000000000001111111110000000
00001110001110000000000000001110000000001111110000000001111110001110000001111110000001110001110001110000000001110001111111110000001111111110000001110001111110000001111110001110001110000000000001111111110000000
00001110001110000000000000001110000000001111110000000001111110001110000001111110000001110001110001110000000001110001111111110000001111111110000001110001111110000001111110001110001110000000000001111111110000000
00001110001110000000000000001110000000001111110000000001111110001110000001111110000001110001110001110000000001110001111111110000001111111110000001110001111110000001111110001110001110000000000001111111110000000
00001110001110000000000000001110000000001111110000000001111110001110000001111110000001110001110001110000000001110001111111110000001111111110000001110001111110000001111110001110001110000000000001111111110000000
00001110001110000000000000001110000000001111110000000001111110001110000001111110000001110001110001110000000001110001111111110000001111111110000001110001111110000001111110001110001110000000000001111111110000000
00001110001110000000000000001110000000001111110000000001111110001110000001111110000001110001110001110000000001110001111111110000001111111110000001110001111110000001111110001110001110000000000001111111110000000
00001110001110000000000000001110000000001111110000000001111110001110000001111110000001110001110001110000000001110001111111110000001111111110000001110001111110000001111110001110001110000000000001111111110000000
00001110001110000000000000001110000000001111110000000001111110001110000001111110000001110001110001110000000001110001111111110000001111111110000001110001111110000001111110001110001110000000000001111111110000000
00001110001110000000000000001110000000001111110000000001111110001110000001111110000001110001110001110000000001110001111111110000001111111110000001110001111110000001111110001110001110000000000001111111110000000
00001110001110000000000000001110000000001111110000000001111110001110000001111110000001110001110001110000000001110001111111110000001111111110000001110001111110000001111110001110001110000000000001111111110000000
00001110001110000000000000001110000000001111110000000001111110001110000001111110000001110001110001110000000001110001111111110000001111111110000001110001111110000001111110001110001110000000000001111111110000000
00001110001110000000000000001110000000001111110000000001111110001110000001111110000001110001110001110000000001110001111111110000001111111110000001110001111110000001111110001110001110000000000001111111110000000
00001110001110000000000000001110000000001111110000000001111110001110000001111110000001110001110001110000000001110001111111110000001111111110000001110001111110000001111110001110001110000000000001111111110000000
00001110001110000000000000001110000000001111110000000001111110001110000001111110000001110001110001110000000001110001111111110000001111111110000001110001111110000001111110001110001110000000000001111111110000000
00001110001110000000000000001110000000001111110000000001111110001110000001111110000001110001110001110000000001110001111111110000001111111110000001110001111110000001111110001110001110000000000001111111110000000
00001110001110000000000000001110000000001111110000000001111110001110000001111110000001110001110001110000000001110001111111110000001111111110000001110001111110000001111110001110001110000000000001111111110000000
00001110001110000000000000001110000000001111110000000001111110001110000001111110000001110001110001110000000001110001111111110000001111111110000001110001111110000001111110001110001110000000000001111111110000000
00001110001110000000000000001110000000001111110000000001111110001110000001111110000001110001110001110000000001110001111111110000001111111110000001110001111110000001111110001110001110000000000001111111110000000
00001110001110000000000000001110000000001111110000000001111110001110000001111110000001110001110001110000000001110001111111110000001111111110000001110001111110000001111110001110001110000000000001111111110000000
00001110001110000000000000001110000000001111110000000001111110001110000001111110000001110001110001110000000001110001111111110000001111111110000001110001111110000001111110001110001110000000000001111111110000000
00001110001110000000000000001110000000001111110000000001111110001110000001111110000001110001110001110000000001110001111111110000001111111110000001110001111110000001111110001110001110000000000001111111110000000
00001110001110000000000000001110000000001111110000000001111110001110000001111110000001110001110001110000000001110001111111110000001111111110000001110001111110000001111110001110001110000000000001111111110000000
00001110001110000000000000001110000000001111110000000001111110001110000001111110000001110001110001110000000001110001111111110000001111111110000001110001111110000001111110001110001110000000000001111111110000000
00001110001110000000000000001110000000001111110000000001111110001110000001111110000001110001110001110000000001110001111111110000001111111110000001110001111110000001111110001110001110000000000001111111110000000
00001110001110000000000000001110000000001111110000000001111110001110000001111110000001110001110001110000000001110001111111110000001111111110000001110001111110000001111110001110001110000000000001111111110000000
00001110001110000000000000001110000000001111110000000001111110001110000001111110000001110001110001110000000001110001111111110000001111111110000001110001111110000001111110001110001110000000000001111111110000000
00001110001110000000000000001110000000001111110000000001111110001110000001111110000001110001110001110000000001110001111111110000001111111110000001110001111110000001111110001110001110000000000001111111110000000
00001110001110000000000000001110000000001111110000000001111110001110000001111110000001110001110001110000000001110001111111110000001111111110000001110001111110000001111110001110001110000000000001111111110000000
00001110001110000000000000001110000000001111110000000001111110001110000001111110000001110001110001110000000001110001111111110000001111111110000001110001111110000001111110001110001110000000000001111111110000000
00001110001110000000000000001110000000001111110000000001111110001110000001111110000001110001110001110000000001110001111111110000001111111110000001110001111110000001111110001110001110000000000001111111110000000
00001110001110000000000000001110000000001111110000000001111110001110000001111110000001110001110001110000000001110001111111110000001111111110000001110001111110000001111110001110001110000000000001111111110000000
00001110001110000000000000001110000000001111110000000001111110001110000001111110000001110001110001110000000001110001111111110000001111111110000001110001111110000001111110001110001110000000000001111111110000000
00001110001110000000000000001110000000001111110000000001111110001110000001111110000001110001110001110000000001110001111111110000001111111110000001110001111110000001111110001110001110000000000001111111110000000
00001110001110000000000000001110000000001111110000000001111110001110000001111110000001110001110001110000000001110001111111110000001111111110000001110001111110000001111110001110001110000000000001111111110000000
00001110001110000000000000001110000000001111110000000001111110001110000001111110000001110001110001110000000001110001111111110000001111111110000001110001111110000001111110001110001110000000000001111111110000000
00001110001110000000000000001110000000001111110000000001111110001110000001111110000001110001110001110000000001110001111111110000001111111110000001110001111110000001111110001110001110000000000001111111110000000
00001110001110000000000000001110000000001111110000000001111110001110000001111110000001110001110001110000000001110001111111110000001111111110000001110001111110000001111110001110001110000000000001111111110000000
00001110001110000000000000001110000000001111110000000001111110001110000001111110000001110001110001110000000001110001111111110000001111111110000001110001111110000001111110001110001110000000000001111111110000000
00001110001110000000000000001110000000001111110000000001111110001110000001111110000001110001110001110000000001110001111111110000001111111110000001110001111110000001111110001110001110000000000001111111110000000
00001110001110000000000000001110000000001111110000000001111110001110000001111110000001110001110001110000000001110001111111110000001111111110000001110001111110000001111110001110001110000000000001111111110000000
00000000000000000000000000000000000000000000000000000000000000000000000000000000000000000000000000000000000000000000000000000000000000000000000000000000000000000000000000000000000000000000000000000000000000000
00000000000000000000000000000000000000000000000000000000000000000000000000000000000000000000000000000000000000000000000000000000000000000000000000000000000000000000000000000000000000000000000000000000000000000
00000000000000000000000000000000000000000000000000000000000000000000000000000000000000000000000000000000000000000000000000000000000000000000000000000000000000000000000000000000000000000000000000000000000000000
00000000000000000000000000000000000000000000000000000000000000000000000000000000000000000000000000000000000000000000000000000000000000000000000000000000000000000000000000000000000000000000000000000000000000000
